<svg xmlns="http://www.w3.org/2000/svg" viewBox="0 0 32 32"><defs><style>.cls-1{fill:#832fbc;}</style></defs><title>AppStudio_for_ArcGIS_Glyph_32</title><g id="icons"><path class="cls-1" d="M24.45223,29.75127a5.11913,5.11913,0,0,1-1.66944-2.25965L18.9029,17.14388a.375.375,0,0,0-.24851-.229l-1.37415-.39093-1.32836-4.19161a.10656.10656,0,0,0-.2031-.00017L14.4126,16.52392l-1.37457.391a.375.375,0,0,0-.24843.22876L9.5115,25.8656a6.316,6.316,0,0,1-3.20184,3.49159l-1.5539.74337a.04688.04688,0,0,1-.06423-.05847L12.39667,9.09121a4.62521,4.62521,0,1,1,6.8995,0l3.89849,10.60134a11.45729,11.45729,0,0,1,1.30516-.08054,11.535,11.535,0,0,1,4.784,1.15524.04687.04687,0,0,1-.00959.08854,21.83764,21.83764,0,0,0-4.95852,1.60686l-.08681.04237,1.4516,3.94739a5.124,5.124,0,0,1,.22045,2.74866l-.26766,1.375a.04688.04688,0,0,1-.07463.02817ZM15.93632,3.91136a2.1,2.1,0,1,0,2.09986,2.09986A2.10233,2.10233,0,0,0,15.93632,3.91136ZM13.48971,28.6918a.04689.04689,0,0,1-.07519-.04537,11.37945,11.37945,0,0,1,4.32832-6.57838l1.09465,2.926A55.29814,55.29814,0,0,0,13.48971,28.6918Z"/></g></svg>